<mxfile host="65bd71144e">
    <diagram name="Page-1" id="WMzyBpJKw5hDXPmI8zSA">
        <mxGraphModel dx="1336" dy="714" grid="1" gridSize="10" guides="1" tooltips="1" connect="1" arrows="1" fold="1" page="1" pageScale="1" pageWidth="850" pageHeight="1100" math="0" shadow="0">
            <root>
                <mxCell id="0"/>
                <mxCell id="1" parent="0"/>
                <mxCell id="07MFycVWwDGjIQSSNlZj-3" value="" style="edgeStyle=orthogonalEdgeStyle;rounded=0;orthogonalLoop=1;jettySize=auto;html=1;" parent="1" source="07MFycVWwDGjIQSSNlZj-1" target="07MFycVWwDGjIQSSNlZj-2" edge="1">
                    <mxGeometry relative="1" as="geometry"/>
                </mxCell>
                <mxCell id="07MFycVWwDGjIQSSNlZj-1" value="Start" style="rounded=1;whiteSpace=wrap;html=1;" parent="1" vertex="1">
                    <mxGeometry x="82.5" y="20" width="90" height="40" as="geometry"/>
                </mxCell>
                <mxCell id="07MFycVWwDGjIQSSNlZj-6" value="" style="edgeStyle=orthogonalEdgeStyle;rounded=0;orthogonalLoop=1;jettySize=auto;html=1;entryX=0;entryY=0.5;entryDx=0;entryDy=0;" parent="1" source="07MFycVWwDGjIQSSNlZj-2" target="2" edge="1">
                    <mxGeometry relative="1" as="geometry"/>
                </mxCell>
                <mxCell id="07MFycVWwDGjIQSSNlZj-2" value="&lt;div&gt;Display &quot;Input name of&amp;nbsp;&lt;span style=&quot;background-color: initial;&quot;&gt;player 1&quot;&amp;nbsp;&lt;/span&gt;&lt;/div&gt;&lt;div&gt;&lt;span style=&quot;background-color: initial;&quot;&gt;Save input as player1&lt;/span&gt;&lt;/div&gt;" style="shape=parallelogram;perimeter=parallelogramPerimeter;whiteSpace=wrap;html=1;fixedSize=1;" parent="1" vertex="1">
                    <mxGeometry x="201.25" y="30" width="208.75" height="50" as="geometry"/>
                </mxCell>
                <mxCell id="07MFycVWwDGjIQSSNlZj-10" value="" style="edgeStyle=orthogonalEdgeStyle;rounded=0;orthogonalLoop=1;jettySize=auto;html=1;exitX=0;exitY=0.5;exitDx=0;exitDy=0;" parent="1" source="4" target="07MFycVWwDGjIQSSNlZj-9" edge="1">
                    <mxGeometry relative="1" as="geometry"/>
                </mxCell>
                <mxCell id="5" value="" style="edgeStyle=none;html=1;" edge="1" parent="1" source="07MFycVWwDGjIQSSNlZj-5" target="4">
                    <mxGeometry relative="1" as="geometry"/>
                </mxCell>
                <mxCell id="07MFycVWwDGjIQSSNlZj-5" value="&lt;div&gt;Display &quot;Input name of player 2&quot;&lt;/div&gt;&lt;div&gt;Save input as player2&lt;/div&gt;" style="shape=parallelogram;perimeter=parallelogramPerimeter;whiteSpace=wrap;html=1;fixedSize=1;" parent="1" vertex="1">
                    <mxGeometry x="418.75" y="100" width="212.5" height="50" as="geometry"/>
                </mxCell>
                <mxCell id="07MFycVWwDGjIQSSNlZj-12" value="" style="edgeStyle=orthogonalEdgeStyle;rounded=0;orthogonalLoop=1;jettySize=auto;html=1;" parent="1" source="07MFycVWwDGjIQSSNlZj-9" target="07MFycVWwDGjIQSSNlZj-11" edge="1">
                    <mxGeometry relative="1" as="geometry"/>
                </mxCell>
                <mxCell id="07MFycVWwDGjIQSSNlZj-13" value="No" style="edgeLabel;html=1;align=center;verticalAlign=middle;resizable=0;points=[];" parent="07MFycVWwDGjIQSSNlZj-12" vertex="1" connectable="0">
                    <mxGeometry x="-0.0146" y="4" relative="1" as="geometry">
                        <mxPoint as="offset"/>
                    </mxGeometry>
                </mxCell>
                <mxCell id="07MFycVWwDGjIQSSNlZj-15" value="" style="edgeStyle=orthogonalEdgeStyle;rounded=0;orthogonalLoop=1;jettySize=auto;html=1;" parent="1" source="07MFycVWwDGjIQSSNlZj-9" target="07MFycVWwDGjIQSSNlZj-14" edge="1">
                    <mxGeometry relative="1" as="geometry"/>
                </mxCell>
                <mxCell id="07MFycVWwDGjIQSSNlZj-18" value="Yes" style="edgeLabel;html=1;align=center;verticalAlign=middle;resizable=0;points=[];" parent="07MFycVWwDGjIQSSNlZj-15" vertex="1" connectable="0">
                    <mxGeometry x="-0.1397" y="3" relative="1" as="geometry">
                        <mxPoint as="offset"/>
                    </mxGeometry>
                </mxCell>
                <mxCell id="07MFycVWwDGjIQSSNlZj-9" value="score1&amp;gt;score2" style="rhombus;whiteSpace=wrap;html=1;" parent="1" vertex="1">
                    <mxGeometry x="76.25" y="220" width="102.5" height="100" as="geometry"/>
                </mxCell>
                <mxCell id="07MFycVWwDGjIQSSNlZj-17" value="" style="edgeStyle=orthogonalEdgeStyle;rounded=0;orthogonalLoop=1;jettySize=auto;html=1;" parent="1" source="07MFycVWwDGjIQSSNlZj-11" target="07MFycVWwDGjIQSSNlZj-16" edge="1">
                    <mxGeometry relative="1" as="geometry"/>
                </mxCell>
                <mxCell id="07MFycVWwDGjIQSSNlZj-19" value="Yes" style="edgeLabel;html=1;align=center;verticalAlign=middle;resizable=0;points=[];" parent="07MFycVWwDGjIQSSNlZj-17" vertex="1" connectable="0">
                    <mxGeometry x="-0.1394" y="-1" relative="1" as="geometry">
                        <mxPoint as="offset"/>
                    </mxGeometry>
                </mxCell>
                <mxCell id="07MFycVWwDGjIQSSNlZj-21" value="" style="edgeStyle=orthogonalEdgeStyle;rounded=0;orthogonalLoop=1;jettySize=auto;html=1;" parent="1" source="07MFycVWwDGjIQSSNlZj-11" target="07MFycVWwDGjIQSSNlZj-20" edge="1">
                    <mxGeometry relative="1" as="geometry"/>
                </mxCell>
                <mxCell id="07MFycVWwDGjIQSSNlZj-11" value="score1&amp;lt;score2" style="rhombus;whiteSpace=wrap;html=1;" parent="1" vertex="1">
                    <mxGeometry x="230" y="220" width="102.5" height="100" as="geometry"/>
                </mxCell>
                <mxCell id="07MFycVWwDGjIQSSNlZj-29" value="" style="edgeStyle=orthogonalEdgeStyle;rounded=0;orthogonalLoop=1;jettySize=auto;html=1;entryX=0;entryY=0.5;entryDx=0;entryDy=0;" parent="1" source="07MFycVWwDGjIQSSNlZj-14" target="07MFycVWwDGjIQSSNlZj-24" edge="1">
                    <mxGeometry relative="1" as="geometry">
                        <mxPoint x="127.5" y="560" as="targetPoint"/>
                        <Array as="points">
                            <mxPoint x="128" y="530"/>
                        </Array>
                    </mxGeometry>
                </mxCell>
                <mxCell id="07MFycVWwDGjIQSSNlZj-14" value="&lt;div&gt;Display player1&quot; has&lt;/div&gt;&lt;div&gt;&amp;nbsp;won with a score of &quot; score1&lt;/div&gt;" style="shape=parallelogram;perimeter=parallelogramPerimeter;whiteSpace=wrap;html=1;fixedSize=1;" parent="1" vertex="1">
                    <mxGeometry x="53.75" y="400" width="147.5" height="80" as="geometry"/>
                </mxCell>
                <mxCell id="07MFycVWwDGjIQSSNlZj-27" value="" style="edgeStyle=orthogonalEdgeStyle;rounded=0;orthogonalLoop=1;jettySize=auto;html=1;entryX=0;entryY=0.5;entryDx=0;entryDy=0;" parent="1" source="07MFycVWwDGjIQSSNlZj-16" target="07MFycVWwDGjIQSSNlZj-24" edge="1">
                    <mxGeometry relative="1" as="geometry">
                        <mxPoint x="281.25" y="560" as="targetPoint"/>
                        <Array as="points">
                            <mxPoint x="281" y="530"/>
                        </Array>
                    </mxGeometry>
                </mxCell>
                <mxCell id="07MFycVWwDGjIQSSNlZj-16" value="&lt;div&gt;Display player1&quot; has&amp;nbsp;&lt;/div&gt;&lt;div&gt;won with a score of &quot; score1&lt;/div&gt;" style="shape=parallelogram;perimeter=parallelogramPerimeter;whiteSpace=wrap;html=1;fixedSize=1;" parent="1" vertex="1">
                    <mxGeometry x="205.63" y="400" width="151.25" height="80" as="geometry"/>
                </mxCell>
                <mxCell id="07MFycVWwDGjIQSSNlZj-25" value="" style="edgeStyle=orthogonalEdgeStyle;rounded=0;orthogonalLoop=1;jettySize=auto;html=1;" parent="1" source="07MFycVWwDGjIQSSNlZj-20" target="07MFycVWwDGjIQSSNlZj-24" edge="1">
                    <mxGeometry relative="1" as="geometry"/>
                </mxCell>
                <mxCell id="07MFycVWwDGjIQSSNlZj-20" value="Display &quot;Its a draw!&quot;" style="shape=parallelogram;perimeter=parallelogramPerimeter;whiteSpace=wrap;html=1;fixedSize=1;" parent="1" vertex="1">
                    <mxGeometry x="370" y="240" width="140" height="60" as="geometry"/>
                </mxCell>
                <mxCell id="07MFycVWwDGjIQSSNlZj-24" value="End" style="rounded=1;whiteSpace=wrap;html=1;" parent="1" vertex="1">
                    <mxGeometry x="400" y="510" width="80" height="40" as="geometry"/>
                </mxCell>
                <mxCell id="3" value="" style="edgeStyle=none;html=1;" edge="1" parent="1" source="2" target="07MFycVWwDGjIQSSNlZj-5">
                    <mxGeometry relative="1" as="geometry"/>
                </mxCell>
                <mxCell id="2" value="&lt;div&gt;Display &quot;and score&quot;&lt;/div&gt;&lt;div&gt;Input=score1&lt;/div&gt;" style="shape=parallelogram;perimeter=parallelogramPerimeter;whiteSpace=wrap;html=1;fixedSize=1;" vertex="1" parent="1">
                    <mxGeometry x="450" y="30" width="150" height="50" as="geometry"/>
                </mxCell>
                <mxCell id="4" value="&lt;div&gt;Display &quot;and score&quot;&lt;/div&gt;&lt;div&gt;Input=score2&lt;/div&gt;" style="shape=parallelogram;perimeter=parallelogramPerimeter;whiteSpace=wrap;html=1;fixedSize=1;" vertex="1" parent="1">
                    <mxGeometry x="210" y="100" width="160" height="50" as="geometry"/>
                </mxCell>
            </root>
        </mxGraphModel>
    </diagram>
</mxfile>